<svg viewBox="0 0 1024 1024" xmlns="http://www.w3.org/2000/svg"><defs><linearGradient id="msg-bg" x1="0%" y1="0%" x2="0%" y2="100%"><stop offset="0%" stopColor="#81ed9d"/><stop offset="100%" stopColor="#34d058"/></linearGradient></defs><path d="M512 80c-250.7 0-454 180.3-454 402.6 0 128.9 68.3 243.6 174.9 318l-37.4 117.8 126.3-64.4c58 20.4 121.3 31.2 187.1 31.2 250.7 0 454-180.3 454-402.6S762.7 80 512 80z" fill="url(#msg-bg)"/><path d="M512 140c-210 0-380 150-380 340 0 110 58 208 148 272l-28 88 96-48c44 16 92 24 144 24 210 0 380-150 380-340S722 140 512 140z" fill="#ffffff" fillOpacity="0.1"/></svg>